<mxfile host="app.diagrams.net" modified="2024-05-24T09:16:46.700Z" agent="Mozilla/5.0 (Windows NT 10.0; Win64; x64) AppleWebKit/537.36 (KHTML, like Gecko) Chrome/125.0.0.0 Safari/537.36" etag="-HB-WEZ0LVMbijz2ouJf" version="24.4.7" type="github">
  <diagram name="第 1 页" id="jV8hs2a6XyLQGe7KgL6k">
    <mxGraphModel dx="1687" dy="878" grid="1" gridSize="10" guides="1" tooltips="1" connect="1" arrows="1" fold="1" page="1" pageScale="1" pageWidth="1169" pageHeight="827" math="0" shadow="0">
      <root>
        <mxCell id="0" />
        <mxCell id="1" parent="0" />
        <mxCell id="_jA1tCJqQmMw6qJ2eCGu-1" value="" style="shape=cube;whiteSpace=wrap;html=1;boundedLbl=1;backgroundOutline=1;darkOpacity=0.05;darkOpacity2=0.1;fillColor=#fff2cc;strokeColor=#d6b656;" vertex="1" parent="1">
          <mxGeometry x="25" y="190" width="80" height="80" as="geometry" />
        </mxCell>
        <mxCell id="_jA1tCJqQmMw6qJ2eCGu-2" value="&lt;font style=&quot;font-size: 14px;&quot;&gt;&lt;b&gt;输入特征图&lt;/b&gt;&lt;/font&gt;" style="text;html=1;align=center;verticalAlign=middle;resizable=0;points=[];autosize=1;strokeColor=none;fillColor=none;" vertex="1" parent="1">
          <mxGeometry x="20" y="290" width="90" height="30" as="geometry" />
        </mxCell>
        <mxCell id="_jA1tCJqQmMw6qJ2eCGu-3" value="" style="curved=1;endArrow=classic;html=1;rounded=0;strokeWidth=2;" edge="1" parent="1">
          <mxGeometry width="50" height="50" relative="1" as="geometry">
            <mxPoint x="110" y="240" as="sourcePoint" />
            <mxPoint x="215" y="180" as="targetPoint" />
            <Array as="points">
              <mxPoint x="150" y="240" />
              <mxPoint x="165" y="230" />
              <mxPoint x="175" y="220" />
              <mxPoint x="175" y="190" />
              <mxPoint x="185" y="180" />
            </Array>
          </mxGeometry>
        </mxCell>
        <mxCell id="_jA1tCJqQmMw6qJ2eCGu-4" value="" style="shape=cube;whiteSpace=wrap;html=1;boundedLbl=1;backgroundOutline=1;darkOpacity=0.05;darkOpacity2=0.1;size=30;fillColor=#e1d5e7;strokeColor=#9673a6;" vertex="1" parent="1">
          <mxGeometry x="205" y="160" width="55" height="40" as="geometry" />
        </mxCell>
        <mxCell id="_jA1tCJqQmMw6qJ2eCGu-6" value="" style="curved=1;endArrow=classic;html=1;rounded=0;strokeWidth=2;" edge="1" parent="1">
          <mxGeometry width="50" height="50" relative="1" as="geometry">
            <mxPoint x="110" y="240" as="sourcePoint" />
            <mxPoint x="215" y="300" as="targetPoint" />
            <Array as="points">
              <mxPoint x="135" y="240" />
              <mxPoint x="155" y="240" />
              <mxPoint x="175" y="260" />
              <mxPoint x="175" y="280" />
              <mxPoint x="175" y="290" />
              <mxPoint x="185" y="300" />
              <mxPoint x="195" y="300" />
            </Array>
          </mxGeometry>
        </mxCell>
        <mxCell id="_jA1tCJqQmMw6qJ2eCGu-7" value="" style="shape=cube;whiteSpace=wrap;html=1;boundedLbl=1;backgroundOutline=1;darkOpacity=0.05;darkOpacity2=0.1;size=30;fillColor=#f8cecc;strokeColor=#b85450;" vertex="1" parent="1">
          <mxGeometry x="205" y="280" width="55" height="40" as="geometry" />
        </mxCell>
        <mxCell id="_jA1tCJqQmMw6qJ2eCGu-8" value="" style="curved=1;endArrow=classic;html=1;rounded=0;strokeWidth=2;" edge="1" parent="1">
          <mxGeometry width="50" height="50" relative="1" as="geometry">
            <mxPoint x="260" y="300" as="sourcePoint" />
            <mxPoint x="365" y="240" as="targetPoint" />
            <Array as="points">
              <mxPoint x="300" y="300" />
              <mxPoint x="315" y="290" />
              <mxPoint x="325" y="280" />
              <mxPoint x="325" y="250" />
              <mxPoint x="335" y="240" />
            </Array>
          </mxGeometry>
        </mxCell>
        <mxCell id="_jA1tCJqQmMw6qJ2eCGu-9" value="" style="curved=1;endArrow=classic;html=1;rounded=0;strokeWidth=2;" edge="1" parent="1">
          <mxGeometry width="50" height="50" relative="1" as="geometry">
            <mxPoint x="260" y="180" as="sourcePoint" />
            <mxPoint x="365" y="240" as="targetPoint" />
            <Array as="points">
              <mxPoint x="285" y="180" />
              <mxPoint x="305" y="180" />
              <mxPoint x="325" y="200" />
              <mxPoint x="325" y="220" />
              <mxPoint x="325" y="230" />
              <mxPoint x="335" y="240" />
              <mxPoint x="345" y="240" />
            </Array>
          </mxGeometry>
        </mxCell>
        <mxCell id="_jA1tCJqQmMw6qJ2eCGu-10" value="" style="shape=cube;whiteSpace=wrap;html=1;boundedLbl=1;backgroundOutline=1;darkOpacity=0.05;darkOpacity2=0.1;size=10;" vertex="1" parent="1">
          <mxGeometry x="370" y="190" width="30" height="110" as="geometry" />
        </mxCell>
        <mxCell id="_jA1tCJqQmMw6qJ2eCGu-11" value="" style="shape=cube;whiteSpace=wrap;html=1;boundedLbl=1;backgroundOutline=1;darkOpacity=0.05;darkOpacity2=0.1;size=10;" vertex="1" parent="1">
          <mxGeometry x="420" y="210" width="30" height="80" as="geometry" />
        </mxCell>
        <mxCell id="_jA1tCJqQmMw6qJ2eCGu-12" value="" style="shape=cube;whiteSpace=wrap;html=1;boundedLbl=1;backgroundOutline=1;darkOpacity=0.05;darkOpacity2=0.1;size=10;" vertex="1" parent="1">
          <mxGeometry x="470" y="195" width="30" height="110" as="geometry" />
        </mxCell>
        <mxCell id="_jA1tCJqQmMw6qJ2eCGu-14" value="" style="endArrow=none;html=1;rounded=0;entryX=0;entryY=0;entryDx=0;entryDy=0;entryPerimeter=0;exitX=0;exitY=0;exitDx=20;exitDy=0;exitPerimeter=0;" edge="1" parent="1" source="_jA1tCJqQmMw6qJ2eCGu-11" target="_jA1tCJqQmMw6qJ2eCGu-12">
          <mxGeometry width="50" height="50" relative="1" as="geometry">
            <mxPoint x="430" y="210" as="sourcePoint" />
            <mxPoint x="480" y="160" as="targetPoint" />
          </mxGeometry>
        </mxCell>
        <mxCell id="_jA1tCJqQmMw6qJ2eCGu-15" value="" style="endArrow=none;html=1;rounded=0;exitX=1;exitY=1;exitDx=0;exitDy=0;exitPerimeter=0;" edge="1" parent="1" source="_jA1tCJqQmMw6qJ2eCGu-10">
          <mxGeometry width="50" height="50" relative="1" as="geometry">
            <mxPoint x="390" y="340" as="sourcePoint" />
            <mxPoint x="440" y="290" as="targetPoint" />
          </mxGeometry>
        </mxCell>
        <mxCell id="_jA1tCJqQmMw6qJ2eCGu-16" value="" style="endArrow=none;html=1;rounded=0;exitX=1;exitY=1;exitDx=0;exitDy=0;exitPerimeter=0;entryX=0;entryY=0;entryDx=10;entryDy=110;entryPerimeter=0;" edge="1" parent="1" source="_jA1tCJqQmMw6qJ2eCGu-11" target="_jA1tCJqQmMw6qJ2eCGu-12">
          <mxGeometry width="50" height="50" relative="1" as="geometry">
            <mxPoint x="440" y="355" as="sourcePoint" />
            <mxPoint x="490" y="305" as="targetPoint" />
          </mxGeometry>
        </mxCell>
        <mxCell id="_jA1tCJqQmMw6qJ2eCGu-23" value="" style="curved=1;endArrow=classic;html=1;rounded=0;strokeWidth=2;" edge="1" parent="1">
          <mxGeometry width="50" height="50" relative="1" as="geometry">
            <mxPoint x="500" y="240" as="sourcePoint" />
            <mxPoint x="605" y="180" as="targetPoint" />
            <Array as="points">
              <mxPoint x="540" y="240" />
              <mxPoint x="555" y="230" />
              <mxPoint x="565" y="220" />
              <mxPoint x="565" y="190" />
              <mxPoint x="575" y="180" />
            </Array>
          </mxGeometry>
        </mxCell>
        <mxCell id="_jA1tCJqQmMw6qJ2eCGu-24" value="" style="shape=cube;whiteSpace=wrap;html=1;boundedLbl=1;backgroundOutline=1;darkOpacity=0.05;darkOpacity2=0.1;size=30;fillColor=#e1d5e7;strokeColor=#9673a6;" vertex="1" parent="1">
          <mxGeometry x="595" y="160" width="55" height="40" as="geometry" />
        </mxCell>
        <mxCell id="_jA1tCJqQmMw6qJ2eCGu-25" value="" style="curved=1;endArrow=classic;html=1;rounded=0;strokeWidth=2;" edge="1" parent="1">
          <mxGeometry width="50" height="50" relative="1" as="geometry">
            <mxPoint x="500" y="240" as="sourcePoint" />
            <mxPoint x="605" y="300" as="targetPoint" />
            <Array as="points">
              <mxPoint x="525" y="240" />
              <mxPoint x="545" y="240" />
              <mxPoint x="565" y="260" />
              <mxPoint x="565" y="280" />
              <mxPoint x="565" y="290" />
              <mxPoint x="575" y="300" />
              <mxPoint x="585" y="300" />
            </Array>
          </mxGeometry>
        </mxCell>
        <mxCell id="_jA1tCJqQmMw6qJ2eCGu-26" value="" style="shape=cube;whiteSpace=wrap;html=1;boundedLbl=1;backgroundOutline=1;darkOpacity=0.05;darkOpacity2=0.1;size=30;fillColor=#f8cecc;strokeColor=#b85450;" vertex="1" parent="1">
          <mxGeometry x="595" y="280" width="55" height="40" as="geometry" />
        </mxCell>
        <mxCell id="_jA1tCJqQmMw6qJ2eCGu-27" value="" style="curved=1;endArrow=classic;html=1;rounded=0;strokeWidth=2;" edge="1" parent="1">
          <mxGeometry width="50" height="50" relative="1" as="geometry">
            <mxPoint x="650" y="300" as="sourcePoint" />
            <mxPoint x="755" y="240" as="targetPoint" />
            <Array as="points">
              <mxPoint x="690" y="300" />
              <mxPoint x="705" y="290" />
              <mxPoint x="715" y="280" />
              <mxPoint x="715" y="250" />
              <mxPoint x="725" y="240" />
            </Array>
          </mxGeometry>
        </mxCell>
        <mxCell id="_jA1tCJqQmMw6qJ2eCGu-28" value="" style="curved=1;endArrow=classic;html=1;rounded=0;strokeWidth=2;" edge="1" parent="1">
          <mxGeometry width="50" height="50" relative="1" as="geometry">
            <mxPoint x="650" y="180" as="sourcePoint" />
            <mxPoint x="755" y="240" as="targetPoint" />
            <Array as="points">
              <mxPoint x="675" y="180" />
              <mxPoint x="695" y="180" />
              <mxPoint x="715" y="200" />
              <mxPoint x="715" y="220" />
              <mxPoint x="715" y="230" />
              <mxPoint x="725" y="240" />
              <mxPoint x="735" y="240" />
            </Array>
          </mxGeometry>
        </mxCell>
        <mxCell id="_jA1tCJqQmMw6qJ2eCGu-30" value="" style="endArrow=none;html=1;rounded=0;entryX=0;entryY=0;entryDx=0;entryDy=0;entryPerimeter=0;exitX=0;exitY=0;exitDx=20;exitDy=0;exitPerimeter=0;" edge="1" parent="1" target="_jA1tCJqQmMw6qJ2eCGu-11">
          <mxGeometry width="50" height="50" relative="1" as="geometry">
            <mxPoint x="390" y="190" as="sourcePoint" />
            <mxPoint x="420" y="175" as="targetPoint" />
          </mxGeometry>
        </mxCell>
        <mxCell id="_jA1tCJqQmMw6qJ2eCGu-42" value="" style="shape=image;verticalLabelPosition=bottom;labelBackgroundColor=default;verticalAlign=top;aspect=fixed;imageAspect=0;image=data:image/png,iVBORw0KGgoAAAANSUhEUgAAAB0AAAAoCAIAAACNRmZGAAAG1klEQVRIDe3Wb0xSaxgA8JdzDBkkKqAEEzCduQWZDM2aTo3m3NSWrFlNLee/FqI1LFO/2WpLyeaiaW2utNaf1VJLmLlZTlHM/putcLORoNlCVEAFETjnxj1drol3994P7X657wf2cM5zfnveh/d9DwD9NQP8Ghb9j1yn02mz2SwWy9zc3OzsrNFonJ2dNZlMi4uLKysrCIL81XT/pt6pqanu7m6ZTFZcXJyVlSUSiXJzc0+fPt3c3Dw6OmqxWP6du7S09OrVq7q6uqysrJiYmIiICAaDQaPRqFRqcHAwh8PhcrlJSUmlpaX37t3T6/Xe+tp6EQTRarXXr1/Pycnhcrl+fn4QBBGJRDabzeVyt23bFhERQaPRoN8Hk8kUCoVVVVVqtXphYWG1vtbV6XSNjY2xsbEAAAKBwOFwEhISsrOzKysrZTLZxYsXz5w5IxaL09PTo6KiqFQqDMNUKrWgoEClUpnNZg/9k2symeRyuUAggCCIQCBERUVVVFT09/cvLy97HkBR1OFwGI3GlpYWkUjEZDJhGAYAFBUVDQwMeDL/dBEEqa+v5/P5GzZs8PPzEwqFg4OD8/Pzdrvd+3d3uVxWq1Wn0zU0NLBYLAAAkUjMy8vr7+/HKvjhLi4uDg0NJSYmkkikoKCgzMzMoaEhi8XiLXoK//r169u3bzs6Oqqrq1ksFh6PZzAYp06dMhqNKPrHvpicnCwvL6fT6SQSKT09XalUOhwOb9RisYyMjNy8ebO2tvb48eNHjhwpKSk5//sIDQ2FYTg5OVmpVCII4q53eXlZrVZHRkYSCAQej9fQ0OBwODx1eYL5+fnHjx9LpVKBQBAQEIC1NSwsrLy8/Nu3byKRKCAggMVilZaW2mw2t/vly5erV68CAHA4XGFh4fPnzz3W6qC3tzcjI8PX1xeGYT8/PxqNxmAw4uLiampqXC6XXC6Pjo6GYZjP5+v1erf7+vVrsVgMACCRSE1NTTabbTXniQ8ePEihUHx8fJhMZlFR0ZUrV/r6+sbHx2dmZlAUHRsby8rKAgCEhYV1dna63SdPnqSmpgIAvq/8trY277ba7fbPnz/HxsbCMBwdHV1fX//x48fp6WmLxWK3251OJ4qiVqu1rKyMQCAwGIza2lq3++jRIz6fDwBISUnp6enxFOgJzGZzd3f3li1bAACZmZkajcZza3VQU1NDp9NpNFpZWZnbffDgQWRkJABg//79KpVqdSoWGwyGy5cvs9lsPB5/9OjRv2qUTCYLCwujUCj5+flut62tbevWrQCAffv29fX1ebuTk5MnTpzAaqmqqvJOwK6cP3+ew+FQqdTi4mK329XVFR8fDwCIi4tTKpXej2k0mri4OBKJxOPxLl265J2AXamoqNi4cSOdTq+urna7Q0ND2dnZAAA6nd7a2upwOOx2u16vHx0d7enpaWxszM3NJZPJMAzv3btXoVCs605PT+fl5cEwzGazW1tb3e74+Pi5c+cAAHg8vrKycnx8HGtoYWHh970XExMTHBwMAGCxWLW1tRMTE+u67e3tSUlJEARxudw3b964XZPJpFAoaDSaj4+PUCi8e/fup0+fcnJyKBQKDocjEAibNm3i8XhSqfTly5cul2uN63K5FhcXS0pKQkJCAgMDRSKR2Wx2u1jJGRkZ/v7+gYGBYrF4eHj45MmTfD4/PDx8586d+fn5crl8amrKG0UQxGw2q9Xq7du3Y5utsbHR5XL9cOfm5u7fvx8eHo7D4UJDQ8VisUajef/+vVarNRqNVqvVbrd7oyiKLi0tDQ4O8vl8IpEIQdCBAwcmJiZ+nDvYUW0wGCQSCZvN9vX1DQ8PLy0t/fDhg81mW5fDZrmwsPDw4cPU1FQM3b17961bt7Cj/Ue9WN6zZ88kEsnmzZvxeDyHw5FIJHfu3NFoNCsrK1gC9ul0Oi0Wi0qlunDhQlpaGplMBgAkJyc3NzfrdDos5ycXQRCVSiWRSEJCQgAA/v7+iYmJlZWVt2/f7u7u7u/vHxgYePr0aUdHR1NT0+HDhyMiIvB4PJFIFAgE165dW/1i/slFURRBkBcvXhw7dozFYpHJZB8fHxiGyWRyVFRUSkpKWlpafHw8h8OBYRhbKkFBQbt27bpx4wZ2qnmmtdZFUdTlcs3MzCgUikOHDjGZTOxchiAI/mPgcDgAAARBMTExZ8+efffunfd/n3VcFEWdTuf8/PzY2JhCoairqysoKNizZ8+OHTsEAkFCQsL3FSqVSltaWtRq9eTkpNVq9ZTpCdZ3PbcXFha0Wu3w8HBXV1d7e3tbW1tnZ2dvb+/IyIjBYLDb7Z7MNcHfuGuy//nX/12sV//34df24Tfr4j8kcACvkAAAAABJRU5ErkJggg==;" vertex="1" parent="1">
          <mxGeometry x="778.71" y="226.5" width="24.29" height="33.5" as="geometry" />
        </mxCell>
        <mxCell id="_jA1tCJqQmMw6qJ2eCGu-43" value="" style="shape=image;verticalLabelPosition=bottom;labelBackgroundColor=default;verticalAlign=top;aspect=fixed;imageAspect=0;image=data:image/png,iVBORw0KGgoAAAANSUhEUgAAACEAAAAiCAIAAABeEieWAAAGoElEQVRIDc2Wf0hTbRvH77NzPJtO3dQNtTXz92iD/BENbbUCiyx0DBEzIxEtLElQhyGxLAL/WGmQ+ke0oMbsF6bVSleuSYWlK0sz0Mpprmc2f02nTvfTc57nZTA8vub79MLz8l5/3ed87/v+3Nd1ruu6D8D/eQP/PAL/f2I4HA6r1WqxWMxm88zMjNlsnpubW1xctNlsKysrGwfjP/uBYZjL5eru7pbL5ZWVlUeOHBGLxdnZ2SUlJbW1tWq1en5+3u12b4DZiOFyufR6vVKpLCoqEgqFPB4vIiKCyWQGBwczGAwWixUfH8/n88VicV1dXW9v7+Li4rqkXzKWl5fVarVEIhEKhUFBQTAMoyjKZDI5HE5CQgKPx2OxWFQqFYIgFEW3bdt27NixW7dujY+P/ztmHQaGYTabTavV5uTkBAcHIwgSEhKSmJgoEolKSkouXLhw6dKlmpoaiUSSm5u7c+dONptNJpN9fHwEAoFcLp+enna5XKtJaxkYhlmt1oGBgQMHDtBoNBRF2Wx2dnb2vXv3jEbj0tKS0WgcGBjQ6/ULCwsWi6Wrq6u8vJzL5VKpVARBuFxuc3Pz5OTk6i+0lmGz2d68eSMQCAIDAyEI2r59e0NDw+zsrM1mc7vdfX19EomEyWQePHhQq9ViGOZwOObn51++fCkSichkMoqimzZtUiqVExMTXlfWMvr6+srKyvz9/UkkkkAgaGhoMBqN3tnv378vLi6GICg1NVWtVnvfLywstLe35+XlUSgUGIaFQqFarfbmNIFht9ubmpq4XC4EQVwut66ubmRkxLsRjuO/YuA4Pjs729rampmZCQD464gXL140GAyetQTG8PBwZWUlgiAwDFdUVHz+/Hk1YGMGjuOTk5NKpZJGo8EwnJGRoVKp1mHcv38/LS0NhmE6nf7ixQur1fpbDBzHh4aGdu3a5e/vHx4eXl1d7QkXwY+ampqoqCg6nS4SifR6PYZhv8uYnJxsbGxks9kkEqmgoMBsNuP4qp7odrtPnz5NpVJZLNb58+dHR0enpqb+IFpbW9vRo0c9+fZX/RPFP0wm0/j4uE6n43A4AACRSPTx40cCY3FxMT8/n0QixcTEKBSKjo4OmUxWTLSsrKytW7cCAEJDQw8dOkQUi6VSaUtLy8zMTEJCAgAgLS3t2bNnBMb09HRubi4AgMPhqFSq69evp6amgt+xuLg4qVS6srKSnJwMABAKhQ8fPiQwzGZzXl4eBEHx8fEtLS1NTU1ZWVmRRAsPDw8ICAAAkMnk0NBQohi5d+/ey5cv2+32pKQkAMCePXseP35MYDidzqKiIgRBtmzZcvXq1bGxMZPJNEY0lUrlOUdycrJCoSCKY0aj0WQyDQ8P83g8AEB6evrr168JDAzDzp49GxYWxmQyCwsLx8bG3G63i2g9PT0nTpyAICglJeXp06dE8V9PMzMzDx48iI6OBgDk5ub++PGDwMBxXC6X8/l8CoXC5XJ7enrsdvvv5u7o6GhBQUFISAidTq+oqLDZbGsZb9++LSgogGHYx8envr7ec4rVmA16CY7jVqtVo9FERESgKMrn82/cuOFZS6hBq9Xa0NAQFBQEQdC+fftUKtWaUt+A4XQ6+/v7q6qqAAAIgpSWln769GkdBoZhWq3W09cQBDl8+HBHR8ff9GNkZKS6uppOpwMAwsLCFAqF0+lch+Hpa3fu3ImOjkZRlMFg5OTktLW1eTG9vb3FxcWetu+pL4/07du3M2fOxMbGIgji6+t77ty5wcFBbysixArHcZfLZTAYGhsbExMT/fz8wsLCMjMz6+vru7u7Z2dnJyYmNBrNlStX7t69+/3796Wlpa9fv96+ffvkyZMcDgdF0c2bN5eVlX348GF1kNcycBx3u90Wi0Umk/H5fD8/PwqFEhcXV1hY2NjYqFKpOjs7u7q6Xr161d7efvPmzaqqKoFAEBAQAMNwVFTUqVOnhoaGPOnk9X4dhkebn5+vra1NSUlhMBgoikIQ5OvrGxkZuXv37oyMjP379/N4PE/0SSQSjUaLiYkpLS0dHBz0bu0d/JKBYdjy8vK7d++kUmlsbCyZTAYAQBAEw7DnEiORSJ7HwMDA/Pz8J0+eTE1Nee9XL2BtfawWcBz3/KMYDAadTnft2rXy8nKxWJyampqUlLRjx4709PTjx4/LZDKNRvPly5e5ubk1vzze3X7ph3eGB/bz58/+/v7Ozs5Hjx41Nze3trY+f/5cp9ONjIw4HA5vCq1e5R3/LYZ39n83+F8w/gTYh27XYvYzBAAAAABJRU5ErkJggg==;" vertex="1" parent="1">
          <mxGeometry x="752.5" y="226.5" width="26.21" height="27" as="geometry" />
        </mxCell>
        <mxCell id="_jA1tCJqQmMw6qJ2eCGu-44" value="" style="shape=cube;whiteSpace=wrap;html=1;boundedLbl=1;backgroundOutline=1;darkOpacity=0.05;darkOpacity2=0.1;size=30;fillColor=#d5e8d4;strokeColor=#82b366;" vertex="1" parent="1">
          <mxGeometry x="880" y="230" width="55" height="40" as="geometry" />
        </mxCell>
        <mxCell id="_jA1tCJqQmMw6qJ2eCGu-45" value="" style="endArrow=classic;html=1;rounded=0;strokeWidth=2;" edge="1" parent="1">
          <mxGeometry width="50" height="50" relative="1" as="geometry">
            <mxPoint x="810" y="240" as="sourcePoint" />
            <mxPoint x="870" y="240" as="targetPoint" />
          </mxGeometry>
        </mxCell>
        <mxCell id="_jA1tCJqQmMw6qJ2eCGu-47" value="&lt;font style=&quot;font-size: 14px;&quot;&gt;&lt;b&gt;最大池化&lt;/b&gt;&lt;/font&gt;" style="text;html=1;align=center;verticalAlign=middle;resizable=0;points=[];autosize=1;strokeColor=none;fillColor=none;" vertex="1" parent="1">
          <mxGeometry x="192.5" y="328" width="80" height="30" as="geometry" />
        </mxCell>
        <mxCell id="_jA1tCJqQmMw6qJ2eCGu-48" value="&lt;font style=&quot;font-size: 14px;&quot;&gt;&lt;b&gt;平均池化&lt;/b&gt;&lt;/font&gt;" style="text;html=1;align=center;verticalAlign=middle;resizable=0;points=[];autosize=1;strokeColor=none;fillColor=none;" vertex="1" parent="1">
          <mxGeometry x="180" y="120" width="80" height="30" as="geometry" />
        </mxCell>
        <mxCell id="_jA1tCJqQmMw6qJ2eCGu-50" value="&lt;span style=&quot;font-size: 14px;&quot;&gt;&lt;b&gt;MLP&lt;/b&gt;&lt;/span&gt;" style="text;html=1;align=center;verticalAlign=middle;resizable=0;points=[];autosize=1;strokeColor=none;fillColor=none;" vertex="1" parent="1">
          <mxGeometry x="415" y="328" width="50" height="30" as="geometry" />
        </mxCell>
        <mxCell id="_jA1tCJqQmMw6qJ2eCGu-51" value="&lt;span style=&quot;font-size: 14px;&quot;&gt;&lt;b&gt;输出特征矩阵MC&lt;/b&gt;&lt;/span&gt;" style="text;html=1;align=center;verticalAlign=middle;resizable=0;points=[];autosize=1;strokeColor=none;fillColor=none;" vertex="1" parent="1">
          <mxGeometry x="855" y="328" width="130" height="30" as="geometry" />
        </mxCell>
      </root>
    </mxGraphModel>
  </diagram>
</mxfile>
